<svg width="18" height="18" viewBox="0 0 18 18" fill="none" xmlns="http://www.w3.org/2000/svg">
<path d="M12.4644 0C12.5063 0 12.5482 0 12.5924 0C12.6952 1.2694 12.2107 2.21789 11.6218 2.90476C11.044 3.58688 10.2528 4.24845 8.97316 4.14807C8.8878 2.89685 9.37311 2.01871 9.96117 1.33342C10.5066 0.69477 11.5064 0.126466 12.4644 0Z" fill="white"/>
<path d="M16.3388 13.2123C16.3388 13.2249 16.3388 13.236 16.3388 13.2479C15.9792 14.337 15.4662 15.2705 14.8402 16.1368C14.2687 16.9233 13.5684 17.9816 12.318 17.9816C11.2375 17.9816 10.5198 17.2868 9.41245 17.2679C8.24106 17.2489 7.59688 17.8488 6.52587 17.9998C6.40336 17.9998 6.28085 17.9998 6.1607 17.9998C5.37425 17.886 4.73955 17.2631 4.27716 16.7019C2.9137 15.0437 1.86008 12.9017 1.66406 10.1605C1.66406 9.89178 1.66406 9.62383 1.66406 9.35509C1.74706 7.39329 2.70029 5.79824 3.96732 5.02522C4.636 4.61421 5.55525 4.26406 6.57883 4.42056C7.01751 4.48854 7.46567 4.63871 7.8585 4.78731C8.23079 4.93037 8.69634 5.1841 9.13739 5.17066C9.43616 5.16196 9.73335 5.00625 10.0345 4.89639C10.9166 4.57785 11.7813 4.21268 12.9211 4.3842C14.2909 4.59129 15.2631 5.1999 15.8638 6.13891C14.705 6.87636 13.7889 7.98768 13.9454 9.88545C14.0846 11.6093 15.0868 12.6179 16.3388 13.2123Z" fill="white"/>
</svg>
