<svg width="20" height="18" viewBox="0 0 20 18" fill="none" xmlns="http://www.w3.org/2000/svg">
<path d="M1.54724 3.28332C1 4.44209 1 6.09655 1 8.9999C1 12.3747 1 14.062 1.85942 15.2449C2.13698 15.627 2.47294 15.9629 2.85497 16.2405C4.03786 17.0999 5.72524 17.0999 9.1 17.0999H10.9C14.2748 17.0999 15.9621 17.0999 17.145 16.2405C17.5271 15.9629 17.863 15.627 18.1406 15.2449C19 14.062 19 12.3747 19 8.9999C19 6.07603 19 4.41877 18.4411 3.25883M1.54724 3.28332C1.6361 3.09518 1.73937 2.9201 1.85942 2.75487C2.13698 2.37284 2.47294 2.03688 2.85497 1.75933C4.03786 0.899902 5.72524 0.899902 9.1 0.899902H10.9C14.2748 0.899902 15.9621 0.899902 17.145 1.75933C17.5271 2.03688 17.863 2.37284 18.1406 2.75487C18.2554 2.91291 18.3549 3.07996 18.4411 3.25883M1.54724 3.28332L1.9 3.5999L3.63604 5.33594C6.63604 8.33594 8.13604 9.83594 10 9.83594C11.864 9.83594 13.364 8.33594 16.364 5.33594L18.1 3.5999L18.4411 3.25883" stroke="white" stroke-width="1.35"/>
</svg>
