<svg width="18" height="18" viewBox="0 0 18 18" fill="none" xmlns="http://www.w3.org/2000/svg">
<g clip-path="url(#clip0_383_535)">
<path d="M17.8232 9.20768C17.8232 8.59588 17.7736 7.98078 17.6678 7.37891H9.17871V10.8446H14.04C13.8383 11.9624 13.1901 12.9512 12.241 13.5795V15.8283H15.1412C16.8444 14.2608 17.8232 11.9459 17.8232 9.20768Z" fill="#4285F4"/>
<path d="M9.17934 18.001C11.6067 18.001 13.6537 17.204 15.1452 15.8283L12.2449 13.5795C11.438 14.1285 10.3963 14.4393 9.18265 14.4393C6.83468 14.4393 4.84387 12.8553 4.12955 10.7256H1.13672V13.0438C2.66455 16.0829 5.77644 18.001 9.17934 18.001Z" fill="#34A853"/>
<path d="M4.12562 10.7255C3.74862 9.60776 3.74862 8.3974 4.12562 7.27963V4.96143H1.13609C-0.140415 7.50451 -0.140415 10.5006 1.13609 13.0437L4.12562 10.7255Z" fill="#FBBC04"/>
<path d="M9.17934 3.56224C10.4625 3.5424 11.7026 4.02523 12.6318 4.9115L15.2014 2.34196C13.5743 0.814129 11.4149 -0.0258495 9.17934 0.000606499C5.77644 0.000606499 2.66455 1.91867 1.13672 4.96111L4.12625 7.27931C4.83725 5.1463 6.83137 3.56224 9.17934 3.56224Z" fill="#EA4335"/>
</g>
<defs>
<clipPath id="clip0_383_535">
<rect width="18" height="18" fill="white"/>
</clipPath>
</defs>
</svg>
