<svg width="112" height="40" viewBox="0 0 112 40" fill="none" xmlns="http://www.w3.org/2000/svg">
<path d="M13.5291 16.0187C13.4421 15.2044 13.0754 14.5703 12.4289 14.1165C11.7887 13.6629 10.9557 13.4359 9.93009 13.4359C9.20903 13.4359 8.59053 13.5447 8.0746 13.7623C7.55868 13.9798 7.16396 14.2751 6.89045 14.6481C6.61695 15.021 6.47709 15.4469 6.47087 15.9254C6.47087 16.3233 6.561 16.6683 6.74127 16.9605C6.92775 17.2525 7.1795 17.5012 7.49652 17.7063C7.81353 17.9052 8.16473 18.0731 8.55014 18.2098C8.93553 18.3466 9.32402 18.4615 9.71564 18.5548L11.5058 19.0023C12.2269 19.1702 12.92 19.397 13.5851 19.6831C14.2564 19.969 14.8563 20.3295 15.3846 20.7647C15.9193 21.1997 16.3419 21.725 16.6527 22.3404C16.9635 22.9558 17.1189 23.6768 17.1189 24.5035C17.1189 25.6224 16.833 26.6076 16.2611 27.4593C15.6892 28.3046 14.8625 28.9667 13.7809 29.4453C12.7055 29.9177 11.4033 30.1539 9.87414 30.1539C8.38851 30.1539 7.09869 29.9239 6.00467 29.4639C4.91687 29.0039 4.06528 28.3327 3.44989 27.45C2.84072 26.5673 2.51127 25.4919 2.46155 24.2239H5.86481C5.91454 24.889 6.11967 25.4422 6.4802 25.8836C6.84073 26.3248 7.31004 26.6543 7.88813 26.8719C8.47242 27.0894 9.12512 27.1982 9.84618 27.1982C10.5983 27.1982 11.2572 27.0863 11.8229 26.8625C12.3947 26.6325 12.8423 26.3156 13.1655 25.9115C13.4887 25.5012 13.6535 25.0226 13.6597 24.4756C13.6535 23.9783 13.5074 23.568 13.2214 23.2448C12.9355 22.9153 12.5346 22.6418 12.0187 22.4242C11.509 22.2005 10.9122 22.0016 10.2285 21.8276L8.05596 21.2682C6.4833 20.8641 5.2401 20.2518 4.32635 19.4313C3.4188 18.6045 2.96504 17.5074 2.96504 16.1399C2.96504 15.0148 3.26962 14.0295 3.87879 13.1842C4.49418 12.3388 5.33023 11.683 6.38696 11.2168C7.44369 10.7444 8.64027 10.5082 9.97671 10.5082C11.3318 10.5082 12.5191 10.7444 13.5385 11.2168C14.5641 11.683 15.3691 12.3326 15.9534 13.1655C16.5377 13.9922 16.8391 14.9434 16.8579 16.0187H13.5291ZM23.4289 10.7693V29.8649H20.0537V10.7693H23.4289ZM26.8998 29.8649V15.5431H30.2751V29.8649H26.8998ZM28.5968 13.5105C28.0622 13.5105 27.6022 13.3334 27.2169 12.9791C26.8314 12.6185 26.6388 12.1865 26.6388 11.683C26.6388 11.1733 26.8314 10.7413 27.2169 10.387C27.6022 10.0265 28.0622 9.84619 28.5968 9.84619C29.1376 9.84619 29.5976 10.0265 29.9768 10.387C30.3621 10.7413 30.5549 11.1733 30.5549 11.683C30.5549 12.1865 30.3621 12.6185 29.9768 12.9791C29.5976 13.3334 29.1376 13.5105 28.5968 13.5105ZM39.0607 30.1166C37.9356 30.1166 36.9285 29.8276 36.0397 29.2495C35.1508 28.6714 34.4484 27.8323 33.9325 26.7319C33.4165 25.6318 33.1586 24.2953 33.1586 22.7227C33.1586 21.1313 33.4196 19.7887 33.9418 18.6946C34.4702 17.5944 35.1818 16.7647 36.077 16.2052C36.9721 15.6395 37.9698 15.3567 39.07 15.3567C39.9092 15.3567 40.5992 15.4997 41.14 15.7856C41.6807 16.0653 42.1096 16.404 42.4266 16.802C42.7437 17.1935 42.9892 17.5633 43.1632 17.9115H43.3031V10.7693H46.6877V29.8649H43.3684V27.6085H43.1632C42.9892 27.9566 42.7374 28.3264 42.4081 28.718C42.0786 29.1034 41.6434 29.4329 41.1027 29.7063C40.5619 29.9798 39.8812 30.1166 39.0607 30.1166ZM40.0024 27.3473C40.7172 27.3473 41.3264 27.1547 41.83 26.7692C42.3335 26.3777 42.7157 25.8337 42.9768 25.1376C43.2378 24.4414 43.3684 23.6302 43.3684 22.704C43.3684 21.7778 43.2378 20.9729 42.9768 20.2891C42.7219 19.6053 42.3427 19.0738 41.8392 18.6946C41.342 18.3156 40.7296 18.1259 40.0024 18.1259C39.2503 18.1259 38.6224 18.3217 38.1189 18.7133C37.6154 19.105 37.2362 19.6458 36.9815 20.3357C36.7266 21.0257 36.5992 21.8151 36.5992 22.704C36.5992 23.5991 36.7266 24.3979 36.9815 25.1003C37.2425 25.7964 37.6248 26.3466 38.1283 26.7506C38.638 27.1484 39.2627 27.3473 40.0024 27.3473ZM56.6248 30.1446C55.1889 30.1446 53.9489 29.8462 52.9046 29.2495C51.8664 28.6465 51.0676 27.795 50.5082 26.6946C49.9489 25.5883 49.6691 24.286 49.6691 22.7879C49.6691 21.3147 49.9489 20.0218 50.5082 18.9092C51.0739 17.7903 51.8633 16.92 52.8765 16.2984C53.8898 15.6706 55.0801 15.3567 56.4477 15.3567C57.3303 15.3567 58.1633 15.4997 58.9465 15.7856C59.736 16.0653 60.4321 16.5004 61.035 17.0909C61.6443 17.6815 62.1229 18.4336 62.471 19.3473C62.819 20.2549 62.9931 21.3365 62.9931 22.5921V23.6271H51.2542V21.352H59.7576C59.7515 20.7056 59.6116 20.1306 59.338 19.6271C59.0646 19.1174 58.6823 18.7164 58.1912 18.4242C57.7064 18.1322 57.1408 17.9861 56.4942 17.9861C55.8043 17.9861 55.1982 18.1538 54.6761 18.4896C54.1539 18.8191 53.7468 19.2541 53.4546 19.7949C53.1687 20.3295 53.0226 20.9169 53.0164 21.5572V23.5431C53.0164 24.3761 53.1687 25.091 53.4733 25.6878C53.7779 26.2783 54.2036 26.7319 54.7507 27.049C55.2977 27.3598 55.9379 27.5152 56.6715 27.5152C57.1625 27.5152 57.607 27.4469 58.0047 27.31C58.4025 27.1671 58.7475 26.9589 59.0397 26.6854C59.3319 26.4118 59.5526 26.0731 59.7017 25.669L62.8532 26.0234C62.6544 26.8564 62.2752 27.5836 61.7158 28.2052C61.1625 28.8206 60.4539 29.2992 59.5899 29.6411C58.7259 29.9767 57.7374 30.1446 56.6248 30.1446Z" fill="#A1D8EE"/>
<path d="M66.743 29.4033V10.3077H70.2022V26.5035H78.6125V29.4033H66.743ZM85.5869 29.6923C84.6793 29.6923 83.8618 29.5307 83.1346 29.2075C82.4136 28.878 81.8416 28.3932 81.419 27.753C81.0025 27.1128 80.7943 26.3233 80.7943 25.3846C80.7943 24.5766 80.9434 23.9084 81.2419 23.3801C81.5402 22.8517 81.9474 22.4289 82.4633 22.112C82.9793 21.795 83.5604 21.5556 84.2068 21.394C84.8596 21.2262 85.534 21.105 86.2302 21.0304C87.0694 20.9434 87.75 20.8656 88.2722 20.7973C88.7943 20.7227 89.1735 20.6108 89.4097 20.4615C89.6521 20.3062 89.7734 20.0668 89.7734 19.7436V19.6878C89.7734 18.9854 89.5651 18.4414 89.1486 18.056C88.7321 17.6706 88.1322 17.4779 87.3491 17.4779C86.5224 17.4779 85.8665 17.6582 85.3817 18.0187C84.9031 18.3792 84.5799 18.805 84.412 19.2961L81.2605 18.8485C81.5091 17.9783 81.9194 17.2511 82.4913 16.6667C83.0632 16.0762 83.7624 15.6348 84.5892 15.3428C85.4159 15.0443 86.3297 14.8951 87.3304 14.8951C88.0204 14.8951 88.7073 14.976 89.3911 15.1376C90.0748 15.2992 90.6995 15.5665 91.2652 15.9394C91.8308 16.3062 92.2846 16.8066 92.6265 17.4406C92.9746 18.0747 93.1486 18.8672 93.1486 19.8182V29.4033H89.9038V27.436H89.7919C89.5869 27.8337 89.2978 28.2068 88.9249 28.5548C88.5581 28.8968 88.095 29.1733 87.5356 29.3846C86.9823 29.5898 86.3327 29.6923 85.5869 29.6923ZM86.4633 27.2122C87.1409 27.2122 87.7283 27.0785 88.2255 26.8112C88.7228 26.5377 89.1051 26.1772 89.3724 25.7297C89.6459 25.2821 89.7827 24.7942 89.7827 24.2659V22.5781C89.677 22.6652 89.4967 22.746 89.2419 22.8206C88.9932 22.8951 88.7135 22.9605 88.4026 23.0164C88.0919 23.0724 87.7842 23.1221 87.4796 23.1655C87.1751 23.2091 86.9108 23.2464 86.6871 23.2774C86.1836 23.3459 85.7329 23.4577 85.3351 23.6132C84.9373 23.7685 84.6233 23.9861 84.3934 24.2659C84.1634 24.5393 84.0484 24.8937 84.0484 25.3287C84.0484 25.9503 84.2753 26.4197 84.729 26.7366C85.1828 27.0537 85.7609 27.2122 86.4633 27.2122ZM96.6918 29.4033V10.3077H100.067V17.45H100.207C100.381 17.1018 100.627 16.7319 100.943 16.3404C101.261 15.9425 101.689 15.6038 102.23 15.3241C102.771 15.0381 103.461 14.8951 104.3 14.8951C105.407 14.8951 106.404 15.178 107.293 15.7436C108.188 16.3031 108.897 17.1329 109.419 18.2331C109.947 19.3271 110.212 20.6698 110.212 22.2612C110.212 23.8337 109.954 25.1702 109.438 26.2704C108.922 27.3707 108.219 28.2099 107.33 28.788C106.442 29.366 105.435 29.655 104.31 29.655C103.489 29.655 102.808 29.5183 102.268 29.2448C101.727 28.9713 101.292 28.6419 100.962 28.2565C100.639 27.8649 100.387 27.495 100.207 27.147H100.011V29.4033H96.6918ZM100.002 22.2425C100.002 23.1686 100.132 23.9798 100.393 24.6761C100.661 25.3722 101.043 25.9162 101.54 26.3077C102.044 26.6932 102.653 26.8858 103.368 26.8858C104.114 26.8858 104.738 26.6869 105.242 26.2891C105.745 25.8851 106.125 25.3349 106.379 24.6388C106.64 23.9364 106.771 23.1376 106.771 22.2425C106.771 21.3536 106.644 20.5642 106.389 19.8742C106.134 19.1842 105.755 18.6434 105.251 18.2518C104.748 17.8602 104.12 17.6644 103.368 17.6644C102.647 17.6644 102.034 17.854 101.531 18.2331C101.027 18.6123 100.645 19.1438 100.384 19.8276C100.129 20.5114 100.002 21.3163 100.002 22.2425Z" fill="#FAFDFF"/>
</svg>
