<svg width="32" height="32" viewBox="0 0 32 32" fill="none" xmlns="http://www.w3.org/2000/svg">
<path d="M8.82471 13.8994H3.02471C2.62471 13.8994 2.32471 13.5744 2.32471 13.1994C2.32471 12.7994 2.64971 12.4994 3.02471 12.4994H8.82471C9.22471 12.4994 9.52471 12.8244 9.52471 13.1994C9.52471 13.5744 9.22471 13.8994 8.82471 13.8994ZM8.62471 23.6744H3.19971C2.79971 23.6744 2.49971 23.3494 2.49971 22.9744C2.49971 22.5744 2.82471 22.2744 3.19971 22.2744H8.62471C9.02471 22.2744 9.32471 22.5994 9.32471 22.9744C9.32471 23.3744 9.02471 23.6744 8.62471 23.6744ZM7.77471 18.7744H1.14971C0.749707 18.7744 0.449707 18.4494 0.449707 18.0744C0.449707 17.6744 0.774707 17.3744 1.14971 17.3744H7.77471C8.17471 17.3744 8.47471 17.6994 8.47471 18.0744C8.49971 18.4744 8.17471 18.7744 7.77471 18.7744ZM30.5247 9.47441C30.5247 9.92441 30.3747 10.3494 30.1497 10.6994C29.2247 9.54941 28.1247 8.57441 26.8497 7.82441C27.2497 7.47441 27.7747 7.27441 28.3247 7.27441C29.5497 7.27441 30.5247 8.24941 30.5247 9.47441ZM10.8997 9.47441C10.8997 9.92441 11.0497 10.3494 11.2747 10.6994C12.1997 9.54941 13.2997 8.57441 14.5747 7.82441C14.1747 7.47441 13.6497 7.27441 13.0997 7.27441C11.8747 7.27441 10.8747 8.24941 10.8997 9.47441Z" fill="#A1D8EE"/>
<path d="M31.3749 16.2256C30.4999 11.6506 27.2249 8.40059 22.6499 7.50059C21.7249 7.32559 21.6749 7.15059 21.7499 6.20059L21.7749 5.95059H23.5249C23.9999 5.92559 24.2249 5.75059 24.2749 5.32559C24.3249 4.85059 24.3249 4.32559 24.2749 3.77559C24.2499 3.57559 24.1499 3.22559 23.6999 3.22559H20.7499C19.7249 3.22559 18.7749 3.22559 17.8499 3.25059C17.4499 3.25059 17.1749 3.55059 17.1499 3.97559V4.95059C17.1499 5.67559 17.4499 5.95059 18.1749 5.95059H19.9749L19.9999 6.20059C20.0999 7.12559 20.0499 7.30059 19.1499 7.45059C19.0749 7.45059 18.9999 7.47559 18.9249 7.50059C18.8499 7.52559 18.7999 7.52559 18.7249 7.55059C15.9999 8.05059 13.4999 9.70059 11.8999 12.0756C10.2749 14.4756 9.67491 17.3256 10.2249 20.0756C11.2499 25.2256 15.5999 28.8256 20.7749 28.8256C21.5499 28.8256 22.2999 28.7506 23.0749 28.5756C28.6499 27.4006 32.4249 21.7506 31.3749 16.2256ZM26.9749 24.3006C25.3249 25.9506 23.1249 26.8756 20.8249 26.8756H20.7499C15.8999 26.8256 11.9749 22.8506 11.9999 17.9756C11.9999 13.2006 15.9499 9.27559 20.7999 9.27559H20.8499C23.2249 9.30059 25.4249 10.2006 27.0499 11.8756C28.6749 13.5256 29.5749 15.7506 29.5749 18.1256C29.5749 20.4756 28.6499 22.6506 26.9749 24.3006Z" fill="#FAFDFF"/>
<path d="M22.1999 19.1998C21.8499 19.6498 21.3249 19.8748 20.7999 19.8748C20.3999 19.8748 20.0249 19.7498 19.6999 19.4748C19.3249 19.1748 19.0749 18.7498 19.0249 18.2748C18.9749 17.7998 19.0999 17.3248 19.3999 16.9498C19.5749 16.7248 19.8249 16.5248 20.0749 16.4248L20.0999 12.8498C20.102 12.6714 20.1737 12.5009 20.2999 12.3748C20.426 12.2487 20.5965 12.1769 20.7749 12.1748C21.1499 12.1748 21.4499 12.4748 21.4499 12.8748L21.4249 16.3998C21.5999 16.4748 21.7499 16.5498 21.8749 16.6498C22.2499 16.9498 22.4999 17.3748 22.5499 17.8498C22.6249 18.3498 22.4999 18.8248 22.1999 19.1998Z" fill="#A1D8EE"/>
</svg>
