<svg width="18" height="18" viewBox="0 0 18 18" fill="none" xmlns="http://www.w3.org/2000/svg">
<g clip-path="url(#clip0_383_101)">
<path fill-rule="evenodd" clip-rule="evenodd" d="M1.26643 1.26643C-1.53269e-07 2.53286 0 4.56429 0 8.64V9.36C0 13.4357 -1.53269e-07 15.4671 1.26643 16.7336C2.53286 18 4.56429 18 8.64 18H9.36C13.4357 18 15.4671 18 16.7336 16.7336C18 15.4671 18 13.4357 18 9.36V8.64C18 4.56429 18 2.53286 16.7336 1.26643C15.4671 -1.53269e-07 13.4357 0 9.36 0H8.64C4.56429 0 2.53286 -1.53269e-07 1.26643 1.26643ZM2.98929 5.625C3.09214 10.305 5.55429 13.1271 9.61071 13.1271H9.84857V10.4464C11.3271 10.5943 12.4329 11.7 12.8829 13.1271H15.0171C14.8061 12.3241 14.4286 11.5743 13.9092 10.9265C13.3898 10.2786 12.7401 9.74712 12.0021 9.36643C12.6624 8.95089 13.2306 8.40456 13.6718 7.76111C14.1129 7.11765 14.4176 6.39069 14.5671 5.625H12.6257C12.2143 7.11643 11.0057 8.46643 9.84857 8.595V5.625H7.875V10.8193C6.67929 10.5236 5.11071 9.06429 5.04643 5.625H2.98929Z" fill="white"/>
</g>
<defs>
<clipPath id="clip0_383_101">
<rect width="18" height="18" fill="white"/>
</clipPath>
</defs>
</svg>
