<svg width="18" height="18" viewBox="0 0 18 18" fill="none" xmlns="http://www.w3.org/2000/svg">
<g clip-path="url(#clip0_383_1168)">
<path d="M9 18C13.9708 18 18 13.9708 18 9C18 4.02923 13.9708 0 9 0C4.02923 0 0 4.02923 0 9C0 13.9708 4.02923 18 9 18Z" fill="#FC3F1D"/>
<path d="M11.8714 14.0397H10.0852V5.20448H9.28976C7.83522 5.20448 7.07022 5.93971 7.07022 7.02732C7.07022 8.26448 7.60261 8.83425 8.69022 9.56948L9.59022 10.1697L7.00238 14.0397H5.07568L7.40045 10.5851C6.06291 9.63386 5.31591 8.69648 5.31591 7.13255C5.31591 5.15948 6.68045 3.82471 9.28284 3.82471H11.8707L11.8714 14.0397Z" fill="white"/>
</g>
<defs>
<clipPath id="clip0_383_1168">
<rect width="18" height="18" fill="white"/>
</clipPath>
</defs>
</svg>
