<svg width="24" height="24" viewBox="0 0 24 24" fill="none" xmlns="http://www.w3.org/2000/svg">
<path d="M3.7138 3.5C3.07246 3.5 2.5564 4.07246 2.5564 4.78389V7.32528C2.5564 8.00407 2.54752 8.5506 3.12502 8.5506H5.11531C6.13541 8.51148 6.08309 6.35534 8.30164 6.33541H9.65058V17.3787C9.65058 18.1689 8.20323 18.1965 7.68646 18.214C7.16896 18.2315 6.70139 18.6076 6.70139 19.3904C6.70139 20.1925 7.19536 20.5 7.80911 20.5H16.2237C16.8374 20.5 17.3311 20.1925 17.3311 19.3904C17.3311 18.6074 16.8624 18.2315 16.3461 18.214C15.83 18.1965 14.3819 18.1701 14.3819 17.3787V6.33541H15.7297C17.9499 6.35534 17.8962 8.51148 18.916 8.5506H20.9075C21.4838 8.5506 21.4749 8.00407 21.4749 7.32528V4.78389C21.4749 4.07246 20.9589 3.5 20.3175 3.5H3.7138Z" fill="#FAFDFF"/>
</svg>
