<svg width="16" height="16" viewBox="0 0 16 16" fill="none" xmlns="http://www.w3.org/2000/svg">
<path d="M11.6491 11.7064C11.7524 11.7064 11.8362 11.6227 11.8362 11.5193L11.8362 4.60683C11.8362 4.54867 11.8248 4.49107 11.8025 4.43733C11.7803 4.38359 11.7477 4.33476 11.7065 4.29364C11.6654 4.25251 11.6166 4.21989 11.5628 4.19764C11.5091 4.17539 11.4515 4.16395 11.3933 4.16397L4.48089 4.16397C4.37753 4.16397 4.29374 4.24776 4.29375 4.35112L4.2938 4.86265C4.29381 4.966 4.37759 5.04977 4.48093 5.04977L10.324 5.04977L4.11269 11.2611C4.03961 11.3341 4.03961 11.4526 4.11269 11.5257L4.47447 11.8875C4.54755 11.9606 4.66603 11.9606 4.73911 11.8875L10.9504 5.67619L10.9505 11.5193C10.9505 11.6227 11.0343 11.7064 11.1376 11.7064H11.6491Z" fill="#FAFDFF"/>
</svg>
