<svg width="20" height="20" viewBox="0 0 20 20" fill="none" xmlns="http://www.w3.org/2000/svg">
<path fill-rule="evenodd" clip-rule="evenodd" d="M8.7479 3.40546H11.2548V3.82729H12.1602V3.3464C12.1603 2.87971 11.7808 2.5 11.3144 2.5H8.6884C8.22193 2.5 7.84245 2.87971 7.84245 3.3464V3.82729H8.7479V3.40546ZM14.2507 7.41455H5.7514C5.51851 7.41455 5.33518 7.61322 5.35394 7.84542L6.06451 16.6317C6.1041 17.1222 6.51323 17.5 7.00475 17.5H12.9972C13.4887 17.5 13.8979 17.1222 13.9375 16.6316L14.648 7.84542C14.6669 7.61322 14.4836 7.41455 14.2507 7.41455ZM7.80939 16.5628C7.79989 16.5634 7.79039 16.5638 7.78101 16.5638C7.54366 16.5638 7.34441 16.3789 7.32965 16.1388L6.88436 8.92574C6.86903 8.67615 7.05888 8.46134 7.30837 8.44601C7.55705 8.4309 7.77277 8.6203 7.7881 8.87001L8.23328 16.0831C8.24873 16.3327 8.05887 16.5474 7.80939 16.5628ZM10.4588 16.111C10.4588 16.361 10.2561 16.5636 10.0061 16.5636C9.75603 16.5636 9.55335 16.361 9.55335 16.111V8.89782C9.55335 8.64777 9.75603 8.44509 10.0061 8.44509C10.256 8.44509 10.4588 8.64777 10.4588 8.89782V16.111ZM13.1177 8.92448L12.6926 16.1376C12.6785 16.3781 12.4789 16.5636 12.2411 16.5636C12.2322 16.5636 12.2231 16.5634 12.2141 16.563C11.9645 16.5482 11.7741 16.334 11.7888 16.0844L12.2139 8.87115C12.2285 8.62156 12.4421 8.43113 12.6924 8.44589C12.9419 8.46054 13.1324 8.67489 13.1177 8.92448ZM15.519 5.12611L15.8163 6.01738C15.8737 6.18916 15.7991 6.36448 15.6598 6.45191C15.6031 6.48762 15.5358 6.50902 15.462 6.50902H4.54025C4.46644 6.50902 4.39926 6.48762 4.3425 6.45203C4.20322 6.36459 4.12861 6.18927 4.18594 6.01738L4.48326 5.12611C4.56154 4.89117 4.78161 4.73267 5.02926 4.73267H14.9729C15.2207 4.73267 15.4406 4.89117 15.519 5.12611Z" fill="#FAFDFF"/>
</svg>
