<svg width="24" height="24" viewBox="0 0 24 24" fill="none" xmlns="http://www.w3.org/2000/svg">
<path fill-rule="evenodd" clip-rule="evenodd" d="M20.9541 12.9661C20.6502 12.5899 20.2306 12.2607 19.7206 11.9714C17.854 10.9115 14.7901 10.4123 11.8637 10.4123C11.4983 10.4123 11.1294 10.4195 10.764 10.4376C10.4204 10.4521 10.0803 10.4738 9.7403 10.5027C8.83596 10.5751 7.94971 10.7017 7.12134 10.8789C6.84642 10.9368 6.57873 11.0019 6.3219 11.0706C4.60004 9.1028 3.96339 7.37732 4.66154 6.42233L6.33275 4.11446C6.35084 4.08914 6.36893 4.06744 6.39063 4.04935C7.70011 2.43239 12.0229 4.17596 15.4774 6.67555C18.1 8.57828 20.4658 11.096 20.9541 12.9661ZM11.8636 11.1358C16.1828 11.1358 20.7732 12.2897 20.7732 14.4276C20.7732 16.5654 16.1828 17.7194 11.8636 17.7194C7.54453 17.7194 2.9541 16.5654 2.9541 14.4276C2.9541 12.2897 7.54453 11.1358 11.8636 11.1358ZM20.0497 14.4276L20.0494 14.4086L20.0497 14.4277L20.0494 14.4472L20.0497 14.4276ZM11.8636 11.8593C11.9709 11.8593 12.0775 11.8599 12.1833 11.8613C12.0772 11.86 11.9707 11.8593 11.8636 11.8593C11.7591 11.8593 11.6552 11.86 11.5517 11.8612C11.655 11.8599 11.759 11.8593 11.8636 11.8593ZM7.95329 19.5172V20.2479C8.63335 20.3673 9.34959 20.4505 10.0767 20.5047V19.7813V18.3813C9.3532 18.3307 8.64058 18.2475 7.95329 18.1317V19.5172ZM10.8001 19.8245V18.421C11.1546 18.4355 11.5091 18.4427 11.8636 18.4427C13.6976 18.4427 15.5894 18.2474 17.2028 17.835V19.1951V19.9439C15.6329 20.3563 13.7229 20.5697 11.8636 20.5697C11.5091 20.5697 11.1546 20.5625 10.8001 20.548V19.8245ZM17.9262 17.6326V18.9601V19.7306C19.6191 19.1735 20.7731 18.3488 20.7731 17.2781V16.0916C20.5705 16.305 20.3245 16.5003 20.0496 16.6812C19.4708 17.0646 18.7437 17.383 17.9262 17.6326ZM2.95422 17.2781V16.0916C3.1568 16.3014 3.39916 16.5003 3.67769 16.6812C4.5748 17.2744 5.82279 17.7085 7.22994 17.9979V19.3725V20.1104C4.78822 19.5859 2.95422 18.6309 2.95422 17.2781Z" fill="#FAFDFF"/>
</svg>
