<svg width="24" height="24" viewBox="0 0 24 24" fill="none" xmlns="http://www.w3.org/2000/svg">
<path d="M6.12756 17.873C6.16736 17.9128 6.21463 17.9445 6.26666 17.966C6.31869 17.9876 6.37446 17.9987 6.43079 17.9987C6.48711 17.9987 6.54288 17.9876 6.59491 17.966C6.64694 17.9445 6.69421 17.9128 6.73401 17.873L12.0014 12.6056L17.2709 17.873C17.3513 17.9534 17.4604 17.9986 17.5741 17.9986C17.6878 17.9986 17.7969 17.9534 17.8773 17.873C17.9578 17.7926 18.0029 17.6835 18.0029 17.5698C18.0029 17.456 17.9578 17.347 17.8773 17.2665L12.6078 11.9992L17.8752 6.72967C17.9556 6.64925 18.0008 6.54018 18.0008 6.42645C18.0008 6.31271 17.9556 6.20364 17.8752 6.12322C17.7948 6.0428 17.6857 5.99762 17.572 5.99762C17.4582 5.99762 17.3492 6.0428 17.2687 6.12322L12.0014 11.3927L6.73187 6.12536C6.64988 6.05515 6.54442 6.01846 6.43655 6.02263C6.32868 6.02679 6.22636 6.07151 6.15003 6.14784C6.0737 6.22417 6.02899 6.32649 6.02482 6.43435C6.02066 6.54222 6.05735 6.64768 6.12756 6.72967L11.3949 11.9992L6.12756 17.2687C6.04774 17.349 6.00293 17.4576 6.00293 17.5708C6.00293 17.6841 6.04774 17.7927 6.12756 17.873Z" fill="#FAFDFF"/>
</svg>
