<svg width="18" height="18" viewBox="0 0 18 18" fill="none" xmlns="http://www.w3.org/2000/svg">
<g opacity="0.28">
<path fill-rule="evenodd" clip-rule="evenodd" d="M6.75 2.25C5.92157 2.25 5.25 2.92157 5.25 3.75C5.25 4.57843 5.92157 5.25 6.75 5.25C7.57845 5.25 8.25 4.57843 8.25 3.75C8.25 2.92157 7.57845 2.25 6.75 2.25ZM6.75 7.5C5.92157 7.5 5.25 8.17155 5.25 9C5.25 9.82845 5.92157 10.5 6.75 10.5C7.57845 10.5 8.25 9.82845 8.25 9C8.25 8.17155 7.57845 7.5 6.75 7.5ZM5.25 14.25C5.25 13.4216 5.92157 12.75 6.75 12.75C7.57845 12.75 8.25 13.4216 8.25 14.25C8.25 15.0785 7.57845 15.75 6.75 15.75C5.92157 15.75 5.25 15.0785 5.25 14.25ZM11.25 7.5C10.4216 7.5 9.75 8.17155 9.75 9C9.75 9.82845 10.4216 10.5 11.25 10.5C12.0785 10.5 12.75 9.82845 12.75 9C12.75 8.17155 12.0785 7.5 11.25 7.5ZM9.75 3.75C9.75 2.92157 10.4216 2.25 11.25 2.25C12.0785 2.25 12.75 2.92157 12.75 3.75C12.75 4.57843 12.0785 5.25 11.25 5.25C10.4216 5.25 9.75 4.57843 9.75 3.75ZM11.25 12.75C10.4216 12.75 9.75 13.4216 9.75 14.25C9.75 15.0785 10.4216 15.75 11.25 15.75C12.0785 15.75 12.75 15.0785 12.75 14.25C12.75 13.4216 12.0785 12.75 11.25 12.75Z" fill="#FAFDFF"/>
</g>
</svg>
