<svg width="24" height="24" viewBox="0 0 24 24" fill="none" xmlns="http://www.w3.org/2000/svg">
<path fill-rule="evenodd" clip-rule="evenodd" d="M8.29075 3.03539C5.05916 4.37401 2.70826 7.40913 2.34875 11.0301H7.17247C7.27129 8.8425 7.69745 6.6916 8.3516 4.99382C8.5119 4.57782 8.68941 4.1797 8.88443 3.80951C9.10271 3.39514 8.72345 2.85616 8.29075 3.03539ZM8.29076 20.9646C5.05916 19.6259 2.70826 16.5909 2.34875 12.9699H7.17247C7.27129 15.1575 7.69745 17.3084 8.3516 19.0062C8.5119 19.4222 8.68941 19.8203 8.88443 20.1905C9.10271 20.6049 8.72345 21.1439 8.29076 20.9646ZM9.11443 12.9699C9.2122 14.9432 9.59998 16.8508 10.1617 18.3087C10.4897 19.1601 10.8578 19.8075 11.221 20.2244C11.5906 20.6484 11.857 20.7292 12 20.7292C12.1429 20.7292 12.4094 20.6484 12.7789 20.2244C13.1422 19.8075 13.5102 19.1601 13.8383 18.3087C14.4 16.8508 14.7878 14.9432 14.8856 12.9699H9.11443ZM15.6484 19.0062C16.3025 17.3084 16.7287 15.1575 16.8275 12.9699H21.6512C21.2918 16.5909 18.9408 19.6259 15.7092 20.9646C15.2765 21.1439 14.8972 20.6049 15.1155 20.1905C15.3106 19.8203 15.4881 19.4222 15.6484 19.0062ZM21.6512 11.0301H16.8275C16.7287 8.8425 16.3025 6.6916 15.6484 4.99382C15.4881 4.57781 15.3106 4.1797 15.1155 3.8095C14.8972 3.39514 15.2765 2.85616 15.7092 3.03539C18.9408 4.374 21.2918 7.40913 21.6512 11.0301ZM9.11443 11.0301H14.8856C14.7878 9.05678 14.4 7.14918 13.8383 5.69127C13.5102 4.83994 13.1422 4.19248 12.7789 3.7756C12.4094 3.35159 12.1429 3.27078 12 3.27078C11.857 3.27078 11.5906 3.35159 11.221 3.7756C10.8578 4.19248 10.4897 4.83994 10.1617 5.69127C9.59998 7.14918 9.2122 9.05678 9.11443 11.0301Z" fill="#FAFDFF"/>
</svg>
