<svg width="24" height="24" viewBox="0 0 24 24" fill="none" xmlns="http://www.w3.org/2000/svg">
<path d="M12.0022 18.9222C12.0492 18.9222 12.0956 18.913 12.139 18.895C12.1824 18.8771 12.2218 18.8508 12.255 18.8176C12.2882 18.7844 12.3145 18.745 12.3324 18.7016C12.3504 18.6582 12.3596 18.6118 12.3596 18.5648V12.3572L18.5685 12.3559C18.6633 12.3559 18.7542 12.3183 18.8212 12.2512C18.8882 12.1842 18.9258 12.0933 18.9258 11.9986C18.9258 11.9038 18.8882 11.8129 18.8212 11.7459C18.7542 11.6789 18.6633 11.6412 18.5685 11.6412L12.3596 11.6425L12.3583 5.43356C12.3583 5.33878 12.3207 5.24789 12.2536 5.18087C12.1866 5.11385 12.0957 5.0762 12.001 5.0762C11.9062 5.0762 11.8153 5.11385 11.7483 5.18087C11.6813 5.24789 11.6436 5.33878 11.6436 5.43356L11.6449 11.6425L5.43596 11.6437C5.34627 11.6507 5.26251 11.6912 5.2014 11.7572C5.1403 11.8232 5.10635 11.9099 5.10635 11.9998C5.10635 12.0898 5.1403 12.1764 5.2014 12.2424C5.26251 12.3084 5.34627 12.349 5.43596 12.3559L11.6449 12.3572L11.6461 18.5661C11.6464 18.6604 11.684 18.7508 11.7507 18.8176C11.8175 18.8843 11.9079 18.9219 12.0022 18.9222Z" fill="#FAFDFF"/>
</svg>
