<svg width="24" height="24" viewBox="0 0 24 24" fill="none" xmlns="http://www.w3.org/2000/svg">
<path d="M12 12C14.4853 12 16.5 9.98528 16.5 7.5C16.5 5.01472 14.4853 3 12 3C9.51472 3 7.5 5.01472 7.5 7.5C7.5 9.98528 9.51472 12 12 12Z" fill="#FAFDFF"/>
<path d="M12.9 12H11.1C8.95175 12 6.89148 12.8534 5.37243 14.3724C3.85339 15.8915 3 17.9517 3 20.1C3 20.3387 3.09482 20.5676 3.2636 20.7364C3.43239 20.9052 3.66131 21 3.9 21H20.1C20.3387 21 20.5676 20.9052 20.7364 20.7364C20.9052 20.5676 21 20.3387 21 20.1C21 17.9517 20.1466 15.8915 18.6276 14.3724C17.1085 12.8534 15.0483 12 12.9 12Z" fill="#FAFDFF"/>
</svg>
