<svg width="24" height="24" viewBox="0 0 24 24" fill="none" xmlns="http://www.w3.org/2000/svg">
<path d="M13.9533 9.7102V7.87919H9.91333H8.11168V13.2034C8.11168 13.3135 8.0603 13.4126 7.97591 13.4786L5.79998 15.1298C5.61284 15.2729 5.34131 15.1335 5.34131 14.895V7.76177C5.34131 6.26467 6.52651 5.05011 7.99059 5.05011H9.90966H13.9496V3.2191C13.9496 3.0393 14.1514 2.93656 14.2909 3.04297L18.5694 6.29035C18.6831 6.37842 18.6831 6.55455 18.5694 6.64261L14.2945 9.89C14.1514 9.99641 13.9533 9.89 13.9533 9.7102ZM18.6574 16.238V9.10475C18.6574 8.86258 18.3896 8.72681 18.2024 8.86992L16.0265 10.5211C15.9421 10.5872 15.8907 10.6862 15.8907 10.7963V16.1206H14.0891H10.0491V14.2896C10.0491 14.1098 9.84728 14.007 9.70785 14.1134L5.43304 17.3571C5.31929 17.4452 5.31929 17.6213 5.43304 17.7094L9.70785 20.9568C9.84728 21.0632 10.0491 20.9605 10.0491 20.7807V18.9496H14.0891H16.0081C17.4685 18.9496 18.6574 17.7351 18.6574 16.238Z" fill="#A1D8EE"/>
</svg>
