<svg width="24" height="24" viewBox="0 0 24 24" fill="none" xmlns="http://www.w3.org/2000/svg">
<path fill-rule="evenodd" clip-rule="evenodd" d="M11.3396 12.4466C11.6134 11.7978 11.8454 11.2889 12.0359 10.9198C12.1788 10.6461 12.3128 10.4154 12.4378 10.2279C12.5627 10.0404 12.7146 9.85733 12.8931 9.67879C13.0718 9.50019 13.277 9.36612 13.5093 9.27693C13.7413 9.18765 14.0002 9.14299 14.2861 9.14299H16.5716V10.8573C16.5716 10.9347 16.5998 11.0017 16.6563 11.0582C16.7129 11.1147 16.7798 11.143 16.8571 11.143C16.9406 11.143 17.0091 11.1163 17.0624 11.0627L19.9196 8.20562C19.9733 8.15199 20.0001 8.08363 20.0001 8.00025C20.0001 7.91688 19.9733 7.84848 19.9196 7.79466L17.0714 4.9464C17.0001 4.88692 16.9284 4.8573 16.8571 4.8573C16.7736 4.8573 16.7053 4.88404 16.6516 4.93767C16.5983 4.99124 16.5716 5.05964 16.5716 5.14298V6.85717H14.286C13.8812 6.85717 13.5003 6.90639 13.143 7.00459C12.7858 7.10278 12.4688 7.22772 12.1921 7.37958C11.9152 7.53138 11.6474 7.73521 11.3884 7.99121C11.1295 8.24709 10.9092 8.49421 10.7278 8.73229C10.5463 8.9703 10.3557 9.2679 10.1564 9.62509C9.95702 9.98223 9.79628 10.2948 9.67425 10.5626C9.55219 10.8305 9.4049 11.1608 9.2323 11.5537C8.95845 12.2025 8.72631 12.7115 8.53586 13.0805C8.39303 13.3543 8.259 13.585 8.13409 13.7725C8.00913 13.96 7.85723 14.143 7.6787 14.3216C7.5001 14.5003 7.29473 14.6343 7.06259 14.7235C6.83052 14.8128 6.57151 14.8575 6.28584 14.8575H4.28588C4.2025 14.8575 4.13401 14.8841 4.08051 14.9378C4.02706 14.9913 4.0002 15.0596 4.0002 15.143V16.8575C4.0002 16.9408 4.02716 17.0092 4.08073 17.0629C4.13433 17.1165 4.20285 17.1432 4.28609 17.1432H6.28612C6.69098 17.1432 7.07185 17.094 7.42905 16.9957C7.78618 16.8975 8.10323 16.7725 8.37993 16.6207C8.65679 16.4689 8.92461 16.265 9.18355 16.009C9.44242 15.7532 9.66277 15.506 9.84428 15.268C10.0257 15.0299 10.2162 14.7323 10.4157 14.3752C10.615 14.018 10.7758 13.7055 10.8978 13.4377C11.0197 13.1698 11.167 12.8395 11.3396 12.4466ZM4.28568 9.14285H6.2857C6.54761 9.14285 6.79013 9.18604 7.01339 9.27241C7.23665 9.35879 7.42413 9.4629 7.57589 9.58499C7.72769 9.70708 7.87946 9.87517 8.03126 10.0894C8.18302 10.3038 8.30358 10.4928 8.39286 10.6564C8.48209 10.8202 8.5922 11.036 8.72317 11.3038C9.1816 10.2264 9.58924 9.41392 9.94641 8.8663C8.99402 7.52705 7.77379 6.85731 6.28567 6.85731H4.28568C4.2023 6.85731 4.13382 6.88404 4.08031 6.93768C4.02686 6.99118 4 7.05958 4 7.14295V8.85727C4 8.94067 4.02674 9.00897 4.08031 9.06251C4.13394 9.11614 4.20243 9.14285 4.28568 9.14285ZM16.857 12.8577C16.9285 12.8577 17 12.8873 17.0715 12.9468L19.9195 15.7948C19.9732 15.8483 19.9999 15.9167 19.9999 16.0001C19.9999 16.0835 19.9732 16.1518 19.9197 16.2055L17.0624 19.0626C17.0091 19.1161 16.9407 19.1428 16.8572 19.1428C16.7799 19.1428 16.7129 19.1146 16.6564 19.058C16.5999 19.0015 16.5717 18.9345 16.5717 18.8572V17.1428C16.3812 17.1428 16.1282 17.1444 15.8126 17.1473C15.4971 17.1501 15.256 17.1533 15.0892 17.1563C14.9227 17.1591 14.7054 17.1563 14.4376 17.1473C14.1698 17.1383 13.9584 17.1233 13.8037 17.1026C13.6489 17.082 13.4584 17.0506 13.2323 17.009C13.0062 16.9673 12.8189 16.9123 12.6697 16.8438C12.5207 16.7753 12.3482 16.6905 12.1517 16.5893C11.9553 16.4883 11.7797 16.3691 11.625 16.2323C11.4702 16.0953 11.3065 15.9361 11.1339 15.7546C10.9613 15.5731 10.7946 15.3663 10.634 15.1342C10.9852 14.5805 11.3899 13.768 11.8482 12.6967C11.9792 12.9643 12.0893 13.1804 12.1785 13.3438C12.2677 13.5076 12.3884 13.6966 12.5402 13.9109C12.692 14.1253 12.8438 14.2935 12.9955 14.4155C13.1472 14.5376 13.3347 14.6417 13.558 14.728C13.7813 14.8145 14.0237 14.8577 14.2857 14.8577H16.5715V13.1432C16.5715 13.06 16.5982 12.9915 16.6518 12.938C16.7052 12.8844 16.7737 12.8577 16.857 12.8577Z" fill="#A1D8EE"/>
</svg>
