<svg width="24" height="24" viewBox="0 0 24 24" fill="none" xmlns="http://www.w3.org/2000/svg">
<path d="M18.9827 8.57153H5.0856C4.69701 8.57153 4.3999 8.86868 4.3999 9.25723V19.3144C4.3999 19.703 4.69705 20.0001 5.0856 20.0001H18.9827C19.3713 20.0001 19.6684 19.7029 19.6684 19.3144V9.25723C19.6684 8.86868 19.3713 8.57153 18.9827 8.57153Z" fill="#FAFDFF"/>
<path d="M6.22842 7.65728H17.8398C18.2284 7.65728 18.5255 7.36013 18.5255 6.97158C18.5255 6.58304 18.2284 6.28589 17.8398 6.28589H6.22842C5.83983 6.28589 5.54272 6.58304 5.54272 6.97158C5.54272 7.36013 5.83983 7.65728 6.22842 7.65728Z" fill="#FAFDFF"/>
<path d="M7.37124 5.37143H16.6969C17.0855 5.37143 17.3826 5.07428 17.3826 4.68574C17.3826 4.29719 17.0855 4 16.6969 4H7.37124C6.98265 4 6.68555 4.29715 6.68555 4.68569C6.68555 5.07424 6.98265 5.37143 7.37124 5.37143Z" fill="#FAFDFF"/>
</svg>
